<svg id="Layer_1" enable-background="new 0 0 496.009 496.009" height="512" viewBox="0 0 496.009 496.009" width="512" xmlns="http://www.w3.org/2000/svg" style="fill: #C5C5C5"><path d="M 475 0.8 l -464 151.6 c -13.1 4.3 -15 22.1 -3.1 29 l 175.3 102 c 5.5 3.2 12.4 2.8 17.6 -1 l 49.3 -36.6 l -36.6 49.3 c -3.8 5.1 -4.2 12.1 -1 17.6 l 102 175.3 c 6.9 11.9 24.8 10 29 -3.1 l 151.6 -464 c 4.1 -12.5 -7.8 -24.2 -20.2 -20.2 z m -150.8 440.3 l -78.7 -135.4 l 94.9 -127.8 c 4.7 -6.4 4.1 -15.2 -1.5 -20.9 c -5.6 -5.6 -14.5 -6.3 -20.9 -1.5 l -127.8 94.9 l -135.4 -78.7 l 400.1 -130.7 z m -156.3 -90.5 l -106.2 106.2 c -6.2 6.2 -16.4 6.2 -22.6 0 c -6.2 -6.2 -6.2 -16.4 0 -22.6 l 106.2 -106.2 c 6.3 -6.2 16.4 -6.2 22.6 0 c 6.2 6.2 6.2 16.4 0 22.6 z m -140.3 4 c -6.2 -6.2 -6.2 -16.4 0 -22.6 l 41.9 -41.9 c 6.2 -6.2 16.4 -6.2 22.6 0 c 6.2 6.2 6.2 16.4 0 22.6 l -41.9 41.9 c -6.2 6.2 -16.4 6.2 -22.6 0 z m 178.3 49.2 c 6.2 6.2 6.2 16.4 0 22.6 l -41.9 41.9 c -3.1 3.1 -7.2 4.7 -11.3 4.7 c -14.1 0 -21.4 -17.2 -11.3 -27.3 l 41.9 -41.9 c 6.2 -6.2 16.4 -6.2 22.6 0 z"/></svg>