<svg height="512pt" viewBox="0 0 512 512" width="512pt" xmlns="http://www.w3.org/2000/svg" style="fill: #C5C5C5"><path transform="matrix(0.7,0,0,0.7,76.3,79.7)" d="M 254.2 134 c -67.5 0 -122.4 54.9 -122.4 122.4 s 54.9 122.4 122.4 122.4 s 122.4 -54.9 122.4 -122.4 s -54.9 -122.4 -122.4 -122.4 z m 0 214.2 c -50.6 0 -91.8 -41.2 -91.8 -91.8 s 41.2 -91.8 91.8 -91.8 s 91.8 41.2 91.8 91.8 s -41.2 91.8 -91.8 91.8 z m 0 0"/><path transform="matrix(0.7,0,0,0.7,76.3,79.7)" d="M 498.2 198.1 l -39.4 -8.6 c -3.4 -10.5 -7.7 -20.7 -12.7 -30.5 l 21.8 -33.9 c 3.9 -6.1 3 -14 -2.1 -19.1 l -61.3 -61.3 c -5.1 -5.1 -13 -5.9 -19.1 -2.1 l -33.9 21.8 c -9.8 -5 -20.1 -9.2 -30.5 -12.7 l -8.6 -39.4 c -1.5 -7 -7.8 -12 -14.9 -12 h -86.7 c -7.2 0 -13.4 5 -14.9 12 l -8.6 39.4 c -10.5 3.4 -20.7 7.7 -30.5 12.7 l -33.9 -21.8 c -6.1 -3.9 -14 -3 -19.1 2.1 l -61.3 61.3 c -5.1 5.1 -5.9 13 -2.1 19.1 l 21.8 33.9 c -5 9.8 -9.2 20.1 -12.7 30.5 l -39.4 8.6 c -7 1.5 -12 7.8 -12 14.9 v 86.7 c 0 7.2 5 13.4 12 14.9 l 39.4 8.6 c 3.4 10.5 7.7 20.7 12.7 30.5 l -21.8 33.9 c -3.9 6.1 -3 14 2.1 19.1 l 61.3 61.3 c 5.1 5.1 13 5.9 19.1 2.1 l 33.9 -21.8 c 9.8 5 20.1 9.2 30.5 12.7 l 8.6 39.4 c 1.5 7 7.8 12 14.9 12 h 86.7 c 7.2 0 13.4 -5 14.9 -12 l 8.6 -39.4 c 10.5 -3.4 20.7 -7.7 30.5 -12.7 l 33.9 21.8 c 6.1 3.9 14 3 19.1 -2.1 l 61.3 -61.3 c 5.1 -5.1 5.9 -13 2.1 -19.1 l -21.8 -33.9 c 5 -9.8 9.2 -20.1 12.7 -30.5 l 39.4 -8.6 c 7 -1.5 12 -7.8 12 -14.9 v -86.7 c 0 -7.2 -5 -13.4 -12 -14.9 z m -18.6 89.3 l -36.1 7.8 c -5.5 1.2 -10 5.4 -11.5 10.8 c -4 14.2 -9.7 28 -16.9 40.9 c -2.8 4.9 -2.6 11 0.5 15.8 l 20 31.1 l -43.9 43.9 l -31.1 -20 c -4.8 -3.1 -10.9 -3.2 -15.8 -0.5 c -12.9 7.3 -26.7 13 -40.9 16.9 c -5.5 1.5 -9.6 5.9 -10.8 11.5 l -7.8 36.1 h -62 l -7.8 -36.1 c -1.2 -5.5 -5.4 -10 -10.8 -11.5 c -14.2 -4 -28 -9.7 -40.9 -16.9 c -4.9 -2.8 -11 -2.6 -15.8 0.5 l -31.1 20 l -43.9 -43.9 l 20 -31.1 c 3.1 -4.8 3.2 -10.9 0.5 -15.8 c -7.3 -12.9 -13 -26.7 -17 -40.9 c -1.5 -5.5 -5.9 -9.6 -11.5 -10.8 l -36.1 -7.8 v -62 l 36.1 -7.8 c 5.5 -1.2 10 -5.4 11.5 -10.8 c 4 -14.2 9.7 -28 16.9 -40.9 c 2.8 -4.9 2.6 -11 -0.5 -15.8 l -20 -31.1 l 43.9 -43.9 l 31.1 20 c 4.8 3.1 10.9 3.2 15.8 0.5 c 12.9 -7.3 26.7 -13 40.9 -16.9 c 5.5 -1.5 9.6 -5.9 10.8 -11.5 l 7.8 -36.1 h 62 l 7.8 36.1 c 1.2 5.5 5.4 10 10.8 11.5 c 14.2 4 28 9.7 40.9 16.9 c 4.9 2.8 11 2.6 15.8 -0.5 l 31.1 -20 l 43.9 43.9 l -20 31.1 c -3.1 4.8 -3.2 10.9 -0.5 15.8 c 7.3 12.9 13 26.7 17 40.9 c 1.5 5.5 5.9 9.6 11.5 10.8 l 36.1 7.8 z m 0 0"/></svg>