<svg id="color" height="512" viewBox="0 0 24 24" width="512" xmlns="http://www.w3.org/2000/svg"><path d="m17.499 17.999c-.192 0-.384-.073-.53-.22l-2-2c-.293-.293-.293-.768 0-1.061s.768-.293 1.061 0l2 2c.293.293.293.768 0 1.061-.148.147-.34.22-.531.22z" fill="#cfd8dc"/><path d="m9.898 13.099c-.192 0-.384-.073-.53-.22l-1.75-1.75c-.238-.238-.37-.551-.37-.88s.131-.642.37-.88l2-2c.474-.476 1.286-.478 1.762.001l1.745 1.755c.292.294.291.768-.003 1.061l-2.694 2.692c-.146.147-.338.221-.53.221z" fill="#cfd8dc"/><path d="m16.739 12.429-.29-.29c-.07-.07-.09-.189-.04-.29l.35-.71c.34-.67.21-1.479-.32-2.02l-1.13-1.12.72-.721c.29-.29.29-.77 0-1.06s-.77-.29-1.06 0l-.72.72-1.06 1.061-4.94 4.939-1.06 1.061-.72.72c-.29.29-.29.77 0 1.06.15.15.34.221.53.221s.38-.07.53-.221l.72-.72 1.12 1.12c.54.54 1.35.67 2.02.33l.71-.35c.1-.051.22-.03.29.04l.29.289c.33.33.77.511 1.23.511.47 0 .91-.181 1.24-.511l1.59-1.59c.68-.679.68-1.79 0-2.469z" fill="#00bcd4"/><path d="m7.529 12.219c-.29-.29-.77-.29-1.06 0s-.29.77 0 1.06l.72.721 1.06-1.061z" fill="#cfd8dc"/><path d="m13.529 6.219c-.29-.29-.77-.29-1.06 0s-.29.77 0 1.06l.72.721 1.06-1.061z" fill="#cfd8dc"/><path d="m15.944 15.694-.531.531 1.555 1.555c.146.146.338.22.53.22s.384-.073.53-.22z" fill="#b4bcc0"/><path d="m8.619 8.369-1 1c-.238.238-.37.551-.37.88s.131.642.37.88l1.22 1.22 1.881-1.88z" fill="#b4bcc0"/><path d="m10.719 10.469-1.881 1.88-.59.59-1.06 1.061-.72.72c-.29.29-.29.77 0 1.06.15.15.34.221.53.221s.38-.07.53-.221l.72-.72 1.12 1.12c.34.34.787.517 1.239.517.266 0 .533-.061.781-.187l.71-.35c.038-.019.078-.028.118-.028.065 0 .128.024.172.068l.29.289c.33.33.77.511 1.23.511.47 0 .91-.181 1.24-.511l.264-.264.531-.531z" fill="#00a4b9"/><path d="m6.999 12.001c-.192 0-.385.073-.53.218-.29.29-.29.77 0 1.06l.72.721 1.06-1.061-.72-.72c-.145-.145-.338-.218-.53-.218z" fill="#b4bcc0"/><path d="m1.5 12c0-5.789 4.71-10.5 10.5-10.5 2.571 0 4.982.93 6.863 2.576l-.643.644c-.472.47-.139 1.28.53 1.28h2.5c.414 0 .75-.336.75-.75v-2.5c0-.662-.806-1.004-1.28-.53l-.796.796c-2.163-1.926-4.95-3.016-7.924-3.016-6.617 0-12 5.383-12 12 0 1.173.173 2.339.513 3.467.119.395.534.62.935.502.396-.12.621-.539.501-.936-.298-.986-.449-2.008-.449-3.033z" fill="#607d8b"/><path d="m23.487 8.533c-.12-.396-.535-.622-.935-.502-.397.12-.621.539-.501.936.298.986.449 2.008.449 3.033 0 5.789-4.71 10.5-10.5 10.5-2.571 0-4.982-.93-6.863-2.576l.643-.644c.472-.47.139-1.28-.53-1.28h-2.5c-.414 0-.75.336-.75.75v2.5c0 .667.811 1 1.28.53l.796-.796c2.163 1.926 4.95 3.016 7.924 3.016 6.617 0 12-5.383 12-12 0-1.173-.173-2.339-.513-3.467z" fill="#607d8b"/><g fill="#546d79"><path d="m12 0c-6.617 0-12 5.383-12 12 0 1.173.173 2.339.513 3.467.097.323.394.533.718.533.071 0 .144-.01.216-.031.396-.12.621-.539.501-.936-.297-.986-.448-2.008-.448-3.033 0-5.789 4.71-10.5 10.5-10.5z"/><path d="m5.25 18h-2.5c-.414 0-.75.336-.75.75v2.5c0 .452.371.75.757.75.184 0 .371-.068.523-.22l.796-.796c2.163 1.926 4.95 3.016 7.924 3.016v-1.5c-2.571 0-4.982-.93-6.863-2.576l.643-.644c.472-.47.139-1.28-.53-1.28z"/></g></svg>