<?xml version="1.0" encoding="iso-8859-1"?>
<!-- Generator: Adobe Illustrator 19.0.0, SVG Export Plug-In . SVG Version: 6.00 Build 0)  -->
<svg version="1.1" id="Capa_1" xmlns="http://www.w3.org/2000/svg" xmlns:xlink="http://www.w3.org/1999/xlink" x="0px" y="0px"
	 viewBox="0 0 511.999 511.999" style="enable-background:new 0 0 511.999 511.999;fill:#424242;" xml:space="preserve">
<g>
	<g>
		<path d="M477.152,57.714c-27.569-27.568-60.436-39.124-95.05-33.429c-29.128,4.795-59.204,22.009-86.979,49.783l-28.339,31.081
			l29.589,26.951l27.373-30.053c21.719-21.629,44.138-34.861,64.856-38.271c21.96-3.61,41.67,3.661,60.249,22.24
			c18.581,18.579,25.855,38.287,22.24,60.249c-3.427,20.821-16.771,43.359-38.593,65.179l-58.101,58.101
			c-26.197,26.199-53.53,39.482-81.236,39.482h-3.002v40.023h3.002c38.707,0,75.561-17.228,109.537-51.205l58.101-58.101
			c27.774-27.775,44.988-57.852,49.783-86.979C516.279,118.149,504.721,85.282,477.152,57.714z"/>
	</g>
</g>
<g>
	<g>
		<path d="M216.36,378.627l-27.471,30.16c-21.806,21.715-44.318,35-65.122,38.425c-22.056,3.632-41.859-3.674-60.52-22.337
			c-18.661-18.661-25.968-38.458-22.337-60.52c3.442-20.907,16.841-43.537,38.748-65.444l58.304-58.304
			c18.182-18.183,46.014-39.64,76.093-39.64c0.519,0,1.043,0.006,1.564,0.02l6.501-0.02v-40.023l-5.824,0.024
			c-35.386-0.802-72.271,16.977-106.634,51.338L51.358,270.61C23.497,298.471,6.23,328.64,1.421,357.854
			c-5.714,34.713,5.879,67.675,33.526,95.322c23.058,23.057,49.807,34.948,78.189,34.948c5.651,0,11.37-0.471,17.133-1.421
			c29.214-4.809,59.383-22.076,87.244-49.937l28.436-31.188L216.36,378.627z"/>
	</g>
</g>
<g>
	<g>
		<path d="M245.196,282.602c-3.278-3.627-6.62-8.315-10.214-14.329c-1.039-1.739-2.072-3.804-3.072-6.139l-7.874-18.396
			l-36.793,15.75l7.875,18.397c1.701,3.974,3.554,7.646,5.508,10.917c4.955,8.292,9.822,15.042,14.877,20.636l13.418,14.846
			l29.692-26.835L245.196,282.602z"/>
	</g>
</g>
<g>
	<g>
		<rect x="106.544" y="44.84" transform="matrix(0.7634 -0.6459 0.6459 0.7634 -28.4553 103.1331)" width="40.022" height="91.14"/>
	</g>
</g>
<g>
	<g>
		<rect x="182.103" y="17.862" width="40.023" height="91.051"/>
	</g>
</g>
<g>
	<g>
		
			<rect x="365.672" y="376.009" transform="matrix(0.7634 -0.6459 0.6459 0.7634 -181.0546 348.8568)" width="40.022" height="91.14"/>
	</g>
</g>
<g>
	<g>
		<rect x="290.164" y="403.085" width="40.023" height="91.051"/>
	</g>
</g>
</svg>
